<svg width="128" height="128" viewBox="0 0 128 128" fill="none" xmlns="http://www.w3.org/2000/svg">
<path d="M17.1898 3L37.1009 29.6525H90.9415L110.853 3L115.942 41.9725L115.926 41.9659L125.812 107.579L125.853 107.692L126 108.666L125.977 108.674L125.978 108.681H125.959C97.9658 118.87 80.9758 124 63.9625 124C46.9626 124 29.9859 118.878 2.03236 108.705L2.03589 108.681H2V108.537L12.5563 38.4783L17.1898 3Z" fill="#1E1E1E"/>
<ellipse cx="92.9876" cy="64.5" rx="16.0124" ry="23.5" fill="#F2C94C"/>
<path d="M92.5762 48.2332C92.5762 48.2332 95.3728 55.5292 95.3557 64.5131C95.3386 73.4971 92.5143 80.7668 92.5143 80.7668C92.5143 80.7668 89.7177 73.4709 89.7347 64.487C89.7518 55.503 92.5762 48.2332 92.5762 48.2332Z" fill="#1E1E1E"/>
<path fill-rule="evenodd" clip-rule="evenodd" d="M90.0967 58.8413C90.3025 57.1751 90.577 55.638 90.8682 54.281C91.4552 54.6061 91.8757 55.4822 91.8757 56.512C91.8757 57.8187 91.1986 58.878 90.3634 58.878C90.2724 58.878 90.1833 58.8654 90.0967 58.8413Z" fill="#F2C94C"/>
<ellipse cx="35.0124" cy="64.5" rx="16.0124" ry="23.5" fill="#F2C94C"/>
<path d="M34.6009 48.2332C34.6009 48.2332 37.3975 55.5292 37.3804 64.5131C37.3633 73.4971 34.539 80.7668 34.539 80.7668C34.539 80.7668 31.7424 73.4709 31.7595 64.487C31.7765 55.503 34.6009 48.2332 34.6009 48.2332Z" fill="#1E1E1E"/>
<path fill-rule="evenodd" clip-rule="evenodd" d="M32.1214 58.8413C32.3272 57.1751 32.6017 55.638 32.8929 54.281C33.4799 54.6061 33.9004 55.4822 33.9004 56.512C33.9004 57.8187 33.2233 58.878 32.3881 58.878C32.2971 58.878 32.208 58.8654 32.1214 58.8413Z" fill="#F2C94C"/>
</svg>
